<svg xmlns="http://www.w3.org/2000/svg" xmlns:xlink="http://www.w3.org/1999/xlink" contentStyleType="text/css" data-diagram-type="DESCRIPTION" height="776px" preserveAspectRatio="none" style="width:292px;height:776px;background:#FFFFFF;" version="1.1" viewBox="0 0 292 776" width="292px" zoomAndPan="magnify"><defs/><g><!--cluster ??????? ?????????--><g class="cluster" data-qualified-name="....... ........." data-source-line="4" id="ent0002"><path d="M8.5,6 L172.3047,6 A3.75,3.75 0 0 1 174.8047,8.5 L181.8047,28.2969 L231.5,28.2969 A2.5,2.5 0 0 1 234,30.7969 L234,107.09 A2.5,2.5 0 0 1 231.5,109.59 L8.5,109.59 A2.5,2.5 0 0 1 6,107.09 L6,8.5 A2.5,2.5 0 0 1 8.5,6" fill="none" style="stroke:#000000;stroke-width:1.5;"/><line style="stroke:#000000;stroke-width:1.5;" x1="6" x2="181.8047" y1="28.2969" y2="28.2969"/><text fill="#000000" font-family="sans-serif" font-size="14" font-weight="bold" lengthAdjust="spacing" textLength="162.8047" x="10" y="20.9951">Внешние источники</text></g><!--cluster ?????? ????? ?????????? (Go)--><g class="cluster" data-qualified-name="...... ..... .......... .Go." data-source-line="8" id="ent0004"><path d="M22.5,173.59 L273.4082,173.59 A3.75,3.75 0 0 1 275.9082,176.09 L282.9082,195.8869 L282.5,195.8869 A2.5,2.5 0 0 1 285,198.3869 L285,614.58 A2.5,2.5 0 0 1 282.5,617.08 L22.5,617.08 A2.5,2.5 0 0 1 20,614.58 L20,176.09 A2.5,2.5 0 0 1 22.5,173.59" fill="none" style="stroke:#000000;stroke-width:1.5;"/><line style="stroke:#000000;stroke-width:1.5;" x1="20" x2="282.9082" y1="195.8869" y2="195.8869"/><text fill="#000000" font-family="sans-serif" font-size="14" font-weight="bold" lengthAdjust="spacing" textLength="249.9082" x="24" y="188.5851">Сервер сбора телеметрии (Go)</text></g><!--cluster ?????????? ?????--><g class="cluster" data-qualified-name=".......... ....." data-source-line="20" id="ent0012"><path d="M45.5,666.08 L190.7246,666.08 A3.75,3.75 0 0 1 193.2246,668.58 L200.2246,688.3769 L210.5,688.3769 A2.5,2.5 0 0 1 213,690.8769 L213,767.17 A2.5,2.5 0 0 1 210.5,769.67 L45.5,769.67 A2.5,2.5 0 0 1 43,767.17 L43,668.58 A2.5,2.5 0 0 1 45.5,666.08" fill="none" style="stroke:#000000;stroke-width:1.5;"/><line style="stroke:#000000;stroke-width:1.5;" x1="43" x2="200.2246" y1="688.3769" y2="688.3769"/><text fill="#000000" font-family="sans-serif" font-size="14" font-weight="bold" lengthAdjust="spacing" textLength="144.2246" x="47" y="681.0751">Клиентская часть</text></g><!--entity Generator--><g class="entity" data-qualified-name="....... ..........Generator" data-source-line="5" id="ent0003"><rect fill="#F1F1F1" height="52.5938" rx="2.5" ry="2.5" style="stroke:#181818;stroke-width:0.5;" width="196.2305" x="21.88" y="41"/><text fill="#000000" font-family="sans-serif" font-size="14" lengthAdjust="spacing" textLength="176.2305" x="31.88" y="63.9951">Телеметрия с наземной</text><text fill="#000000" font-family="sans-serif" font-size="14" lengthAdjust="spacing" textLength="61.3115" x="31.88" y="80.292">станции</text></g><!--entity TCP--><g class="entity" data-qualified-name="...... ..... .......... .Go..TCP" data-source-line="10" id="ent0005"><rect fill="#F1F1F1" height="36.2969" rx="2.5" ry="2.5" style="stroke:#181818;stroke-width:0.5;" width="112.415" x="63.79" y="208.59"/><text fill="#000000" font-family="sans-serif" font-size="14" lengthAdjust="spacing" textLength="92.415" x="73.79" y="231.5851">TCP Receiver</text></g><!--entity Parser--><g class="entity" data-qualified-name="...... ..... .......... .Go..Parser" data-source-line="11" id="ent0006"><rect fill="#F1F1F1" height="36.2969" rx="2.5" ry="2.5" style="stroke:#181818;stroke-width:0.5;" width="140.3398" x="49.83" y="321.89"/><text fill="#000000" font-family="sans-serif" font-size="14" lengthAdjust="spacing" textLength="120.3398" x="59.83" y="344.8851">Telemetry Parser</text></g><!--entity Store--><g class="entity" data-qualified-name="...... ..... .......... .Go..Store" data-source-line="12" id="ent0007"><rect fill="#F1F1F1" height="52.5938" rx="2.5" ry="2.5" style="stroke:#181818;stroke-width:0.5;" width="183.9531" x="50.02" y="435.19"/><text fill="#000000" font-family="sans-serif" font-size="14" lengthAdjust="spacing" textLength="94.2471" x="60.02" y="458.1851">MemoryStore</text><text fill="#000000" font-family="sans-serif" font-size="14" lengthAdjust="spacing" textLength="163.9531" x="60.02" y="474.482">(оперативная память)</text></g><!--entity API--><g class="entity" data-qualified-name="...... ..... .......... .Go..API" data-source-line="13" id="ent0008"><rect fill="#F1F1F1" height="36.2969" rx="2.5" ry="2.5" style="stroke:#181818;stroke-width:0.5;" width="82.6104" x="86.69" y="564.78"/><text fill="#000000" font-family="sans-serif" font-size="14" lengthAdjust="spacing" textLength="62.6104" x="96.69" y="587.7751">REST API</text></g><!--entity Web--><g class="entity" data-qualified-name=".......... ......Web" data-source-line="21" id="ent0013"><rect fill="#F1F1F1" height="52.5938" rx="2.5" ry="2.5" style="stroke:#181818;stroke-width:0.5;" width="137.6807" x="59.16" y="701.08"/><text fill="#000000" font-family="sans-serif" font-size="14" lengthAdjust="spacing" textLength="117.6807" x="69.16" y="724.0751">Web-интерфейс</text><text fill="#000000" font-family="sans-serif" font-size="14" lengthAdjust="spacing" textLength="67.9629" x="69.16" y="740.372">(Browser)</text></g><!--link TCP to Parser--><g class="link" data-entity-1="ent0005" data-entity-2="ent0006" data-link-type="dependency" data-source-line="15" id="lnk9"><path d="M120,245.13 C120,265.92 120,294.51 120,315.4" fill="none" id="TCP-to-Parser" style="stroke:#181818;stroke-width:1;"/><polygon fill="#181818" points="120,321.4,124,312.4,120,316.4,116,312.4,120,321.4" style="stroke:#181818;stroke-width:1;"/><text fill="#000000" font-family="sans-serif" font-size="13" lengthAdjust="spacing" textLength="105.5869" x="121" y="287.9569">бинарный кадр</text></g><!--link Parser to Store--><g class="link" data-entity-1="ent0006" data-entity-2="ent0007" data-link-type="dependency" data-source-line="16" id="lnk10"><path d="M123.25,358.66 C126.95,378.78 131.9513,405.9596 136.1913,428.9396" fill="none" id="Parser-to-Store" style="stroke:#181818;stroke-width:1;"/><polygon fill="#181818" points="137.28,434.84,139.5806,425.2636,136.3728,429.923,131.7134,426.7152,137.28,434.84" style="stroke:#181818;stroke-width:1;"/><text fill="#000000" font-family="sans-serif" font-size="13" lengthAdjust="spacing" textLength="140.48" x="132" y="401.2569">структура Telemetry</text></g><!--link Store to API--><g class="link" data-entity-1="ent0007" data-entity-2="ent0008" data-link-type="dependency" data-source-line="17" id="lnk11"><path d="M139,488.11 C136.3,511.14 133.0964,538.3906 130.7464,558.5006" fill="none" id="Store-to-API" style="stroke:#181818;stroke-width:1;"/><polygon fill="#181818" points="130.05,564.46,135.0676,555.9851,130.6303,559.4938,127.1216,555.0566,130.05,564.46" style="stroke:#181818;stroke-width:1;"/><text fill="#000000" font-family="sans-serif" font-size="13" lengthAdjust="spacing" textLength="104.2412" x="136" y="530.8469">чтение данных</text></g><!--link Generator to TCP--><g class="link" data-entity-1="ent0003" data-entity-2="ent0005" data-link-type="dependency" data-source-line="24" id="lnk14"><path d="M120,93.94 C120,126.18 120,174.65 120,202.39" fill="none" id="Generator-to-TCP" style="stroke:#181818;stroke-width:1;"/><polygon fill="#181818" points="120,208.39,124,199.39,120,203.39,116,199.39,120,208.39" style="stroke:#181818;stroke-width:1;"/><text fill="#000000" font-family="sans-serif" font-size="13" lengthAdjust="spacing" textLength="24.8574" x="170.718" y="138.6569">TCP</text><text fill="#000000" font-family="sans-serif" font-size="13" lengthAdjust="spacing" textLength="124.2935" x="121" y="153.7897">бинарные данные</text></g><!--link API to Web--><g class="link" data-entity-1="ent0008" data-entity-2="ent0013" data-link-type="dependency" data-source-line="25" id="lnk15"><path d="M128,601.39 C128,626.28 128,666.11 128,694.81" fill="none" id="API-to-Web" style="stroke:#181818;stroke-width:1;"/><polygon fill="#181818" points="128,700.81,132,691.81,128,695.81,124,691.81,128,700.81" style="stroke:#181818;stroke-width:1;"/><text fill="#000000" font-family="sans-serif" font-size="13" lengthAdjust="spacing" textLength="78.1841" x="129" y="646.1469">HTTP / JSON</text></g><!--SRC=[RL9FInjH4B_lfnWywI5uzo2qfMY5QZ21Nd9vnZ46axVXxQA4KjXesmWAWaTl-WdMak16ZVqAyxwHlta9mQvTsFUMuVTlPZOvQjkUSQPBpRZRYotRj9RsEqoEcwcnhGv7oGAI79hz-AHjMtHWEWb7KSyqZqoBQKckPIfZVuwpa359uGV-L5xyC1GUfLYYxn7XMRY0SoTZUSBx3EQfpq2w8ZyWK79v2FMflCYaOODOBbF_6sAGCWbji6LdqjX5Fzx6k8LK9d_qX9JS8q8cEO5UifA2bZVY5OrLpbN_LALTRdBxc5tmGk4TXZlSvTJrgMfSCiVDFilGhzoDNR-6gDomosZeRyYO8rE1f6WMRQEOoxE_GhZBbI0M26MjtS-rEdseVWa8tBFi6hXIMP_xqngXxo88PvZPXKm86yXbvBC0dyEK4Kn0q07xp9_98-wpCB95Xu4p0oe5haeOXf7EjptIvQYL__NlEcumz49na1re2Dtm49VwNVxdd_Z6UnNDhke8z1FSYHzWRXzTV8BKiza0fJwBVo04qociwTcmfVxV9fHnf1qe0IeWRDRhLLgbhThEzYi0]--></g></svg>