<svg xmlns="http://www.w3.org/2000/svg" xmlns:xlink="http://www.w3.org/1999/xlink" contentStyleType="text/css" data-diagram-type="CLASS" height="979px" preserveAspectRatio="none" style="width:1006px;height:979px;background:#FFFFFF;" version="1.1" viewBox="0 0 1006 979" width="1006px" zoomAndPan="magnify"><title>Диаграмма классов серверной части системы телеметрии</title><defs/><g><g class="title" data-source-line="1"><text fill="#000000" font-family="sans-serif" font-size="14" font-weight="bold" lengthAdjust="spacing" textLength="474.2363" x="258.8818" y="22.9951">Диаграмма классов серверной части системы телеметрии</text></g><!--cluster processor--><g class="cluster" data-qualified-name="processor" data-source-line="5" id="ent0002"><path d="M8.5,490.2769 L87.0264,490.2769 A3.75,3.75 0 0 1 89.5264,492.7769 L96.5264,512.5738 L275.5,512.5738 A2.5,2.5 0 0 1 278,515.0738 L278,970.2169 A2.5,2.5 0 0 1 275.5,972.7169 L8.5,972.7169 A2.5,2.5 0 0 1 6,970.2169 L6,492.7769 A2.5,2.5 0 0 1 8.5,490.2769" fill="none" style="stroke:#000000;stroke-width:1.5;"/><line style="stroke:#000000;stroke-width:1.5;" x1="6" x2="96.5264" y1="512.5738" y2="512.5738"/><text fill="#000000" font-family="sans-serif" font-size="14" font-weight="bold" lengthAdjust="spacing" textLength="77.5264" x="10" y="505.272">processor</text></g><!--cluster storage--><g class="cluster" data-qualified-name="storage" data-source-line="29" id="ent0005"><path d="M304.5,453.6669 L366.0117,453.6669 A3.75,3.75 0 0 1 368.5117,456.1669 L375.5117,475.9638 L607.5,475.9638 A2.5,2.5 0 0 1 610,478.4638 L610,647.9469 A2.5,2.5 0 0 1 607.5,650.4469 L304.5,650.4469 A2.5,2.5 0 0 1 302,647.9469 L302,456.1669 A2.5,2.5 0 0 1 304.5,453.6669" fill="none" style="stroke:#000000;stroke-width:1.5;"/><line style="stroke:#000000;stroke-width:1.5;" x1="302" x2="375.5117" y1="475.9638" y2="475.9638"/><text fill="#000000" font-family="sans-serif" font-size="14" font-weight="bold" lengthAdjust="spacing" textLength="60.5117" x="306" y="468.662">storage</text></g><!--cluster receiver--><g class="cluster" data-qualified-name="receiver" data-source-line="42" id="ent0007"><path d="M51.5,240.4869 L117.0176,240.4869 A3.75,3.75 0 0 1 119.5176,242.9869 L126.5176,262.7837 L242.5,262.7837 A2.5,2.5 0 0 1 245,265.2837 L245,402.1669 A2.5,2.5 0 0 1 242.5,404.6669 L51.5,404.6669 A2.5,2.5 0 0 1 49,402.1669 L49,242.9869 A2.5,2.5 0 0 1 51.5,240.4869" fill="none" style="stroke:#000000;stroke-width:1.5;"/><line style="stroke:#000000;stroke-width:1.5;" x1="49" x2="126.5176" y1="262.7837" y2="262.7837"/><text fill="#000000" font-family="sans-serif" font-size="14" font-weight="bold" lengthAdjust="spacing" textLength="64.5176" x="53" y="255.482">receiver</text></g><!--cluster server--><g class="cluster" data-qualified-name="server" data-source-line="53" id="ent0009"><path d="M449.5,43.2969 L500.7578,43.2969 A3.75,3.75 0 0 1 503.2578,45.7969 L510.2578,65.5938 L660.5,65.5938 A2.5,2.5 0 0 1 663,68.0938 L663,204.9869 A2.5,2.5 0 0 1 660.5,207.4869 L449.5,207.4869 A2.5,2.5 0 0 1 447,204.9869 L447,45.7969 A2.5,2.5 0 0 1 449.5,43.2969" fill="none" style="stroke:#000000;stroke-width:1.5;"/><line style="stroke:#000000;stroke-width:1.5;" x1="447" x2="510.2578" y1="65.5938" y2="65.5938"/><text fill="#000000" font-family="sans-serif" font-size="14" font-weight="bold" lengthAdjust="spacing" textLength="50.2578" x="451" y="58.292">server</text></g><!--cluster api--><g class="cluster" data-qualified-name="api" data-source-line="64" id="ent0011"><path d="M359.5,256.7769 L384.7676,256.7769 A3.75,3.75 0 0 1 387.2676,259.2769 L394.2676,279.0737 L996.5,279.0737 A2.5,2.5 0 0 1 999,281.5737 L999,385.8769 A2.5,2.5 0 0 1 996.5,388.3769 L359.5,388.3769 A2.5,2.5 0 0 1 357,385.8769 L357,259.2769 A2.5,2.5 0 0 1 359.5,256.7769" fill="none" style="stroke:#000000;stroke-width:1.5;"/><line style="stroke:#000000;stroke-width:1.5;" x1="357" x2="394.2676" y1="279.0737" y2="279.0737"/><text fill="#000000" font-family="sans-serif" font-size="14" font-weight="bold" lengthAdjust="spacing" textLength="24.2676" x="361" y="271.772">api</text></g><!--class Telemetry--><g class="entity" data-qualified-name="processor.Telemetry" data-source-line="7" id="ent0003"><rect fill="#F1F1F1" height="243.2656" rx="2.5" ry="2.5" style="stroke:#181818;stroke-width:0.5;" width="181.873" x="72.06" y="713.4469"/><ellipse cx="123.0219" cy="729.4469" fill="#ADD1B2" rx="11" ry="11" style="stroke:#181818;stroke-width:1;"/><path d="M125.9907,735.0875 Q125.4125,735.3844 124.7719,735.525 Q124.1313,735.6813 123.4282,735.6813 Q120.9282,735.6813 119.6,734.0406 Q118.2875,732.3844 118.2875,729.2594 Q118.2875,726.1344 119.6,724.4781 Q120.9282,722.8219 123.4282,722.8219 Q124.1313,722.8219 124.7719,722.9781 Q125.4282,723.1344 125.9907,723.4313 L125.9907,726.15 Q125.3657,725.5719 124.7719,725.3063 Q124.1782,725.025 123.5532,725.025 Q122.2094,725.025 121.5219,726.1031 Q120.8344,727.1656 120.8344,729.2594 Q120.8344,731.3531 121.5219,732.4313 Q122.2094,733.4938 123.5532,733.4938 Q124.1782,733.4938 124.7719,733.2281 Q125.3657,732.9469 125.9907,732.3688 L125.9907,735.0875 Z " fill="#000000"/><text fill="#000000" font-family="sans-serif" font-size="14" lengthAdjust="spacing" textLength="71.4492" x="143.5219" y="734.2936">Telemetry</text><line style="stroke:#181818;stroke-width:0.5;" x1="73.06" x2="252.933" y1="745.4469" y2="745.4469"/><text fill="#000000" font-family="sans-serif" font-size="14" lengthAdjust="spacing" textLength="169.873" x="78.06" y="762.442">+OnboardTime : float64</text><text fill="#000000" font-family="sans-serif" font-size="14" lengthAdjust="spacing" textLength="130.6211" x="78.06" y="778.7389">+Velocity : float32</text><line style="stroke:#181818;stroke-width:1;" x1="73.06" x2="252.933" y1="786.0406" y2="786.0406"/><text fill="#000000" font-family="sans-serif" font-size="14" lengthAdjust="spacing" textLength="100.6865" x="78.06" y="803.0357">+Roll : float32</text><text fill="#000000" font-family="sans-serif" font-size="14" lengthAdjust="spacing" textLength="109.0059" x="78.06" y="819.3326">+Pitch : float32</text><text fill="#000000" font-family="sans-serif" font-size="14" lengthAdjust="spacing" textLength="103.1953" x="78.06" y="835.6295">+Yaw : float32</text><line style="stroke:#181818;stroke-width:1;" x1="73.06" x2="252.933" y1="842.9313" y2="842.9313"/><text fill="#000000" font-family="sans-serif" font-size="14" lengthAdjust="spacing" textLength="141.0527" x="78.06" y="859.9264">+TempAvg : float32</text><text fill="#000000" font-family="sans-serif" font-size="14" lengthAdjust="spacing" textLength="140.9365" x="78.06" y="876.2232">+TempSun : float32</text><text fill="#000000" font-family="sans-serif" font-size="14" lengthAdjust="spacing" textLength="169.5449" x="78.06" y="892.5201">+TempShadow : float32</text><line style="stroke:#181818;stroke-width:1;" x1="73.06" x2="252.933" y1="899.8219" y2="899.8219"/><text fill="#000000" font-family="sans-serif" font-size="14" lengthAdjust="spacing" textLength="132.2344" x="78.06" y="916.817">+Latitude : float32</text><text fill="#000000" font-family="sans-serif" font-size="14" lengthAdjust="spacing" textLength="144.4912" x="78.06" y="933.1139">+Longitude : float32</text><text fill="#000000" font-family="sans-serif" font-size="14" lengthAdjust="spacing" textLength="129.3223" x="78.06" y="949.4107">+Altitude : float32</text></g><!--class TelemetryParser--><g class="entity" data-qualified-name="processor.TelemetryParser" data-source-line="24" id="ent0004"><rect fill="#F1F1F1" height="72.5625" rx="2.5" ry="2.5" style="stroke:#181818;stroke-width:0.5;" width="240.0059" x="22" y="525.2769"/><ellipse cx="79.8081" cy="545.4097" fill="#ADD1B2" rx="11" ry="11" style="stroke:#181818;stroke-width:1;"/><path d="M82.7769,551.0503 Q82.1987,551.3472 81.5581,551.4878 Q80.9175,551.6441 80.2144,551.6441 Q77.7144,551.6441 76.3862,550.0034 Q75.0737,548.3472 75.0737,545.2222 Q75.0737,542.0972 76.3862,540.4409 Q77.7144,538.7847 80.2144,538.7847 Q80.9175,538.7847 81.5581,538.9409 Q82.2144,539.0972 82.7769,539.3941 L82.7769,542.1128 Q82.1519,541.5347 81.5581,541.2691 Q80.9644,540.9878 80.3394,540.9878 Q78.9956,540.9878 78.3081,542.0659 Q77.6206,543.1284 77.6206,545.2222 Q77.6206,547.3159 78.3081,548.3941 Q78.9956,549.4566 80.3394,549.4566 Q80.9644,549.4566 81.5581,549.1909 Q82.1519,548.9097 82.7769,548.3316 L82.7769,551.0503 Z " fill="#000000"/><text fill="#000000" font-family="sans-serif" font-size="12" font-style="italic" lengthAdjust="spacing" textLength="48.8027" x="133.8516" y="541.4155">«utility»</text><text fill="#000000" font-family="sans-serif" font-size="14" lengthAdjust="spacing" textLength="115.8896" x="100.3081" y="557.2407">TelemetryParser</text><line style="stroke:#181818;stroke-width:0.5;" x1="23" x2="261.0059" y1="565.5425" y2="565.5425"/><line style="stroke:#181818;stroke-width:0.5;" x1="23" x2="261.0059" y1="573.5425" y2="573.5425"/><text fill="#000000" font-family="sans-serif" font-size="14" lengthAdjust="spacing" textLength="228.0059" x="28" y="590.5376">+Parse(raw : []byte) : Telemetry</text></g><!--class MemoryStore--><g class="entity" data-qualified-name="storage.MemoryStore" data-source-line="31" id="ent0006"><rect fill="#F1F1F1" height="145.7813" rx="2.5" ry="2.5" style="stroke:#181818;stroke-width:0.5;" width="276.8516" x="317.57" y="488.6669"/><ellipse cx="404.6222" cy="504.6669" fill="#ADD1B2" rx="11" ry="11" style="stroke:#181818;stroke-width:1;"/><path d="M407.591,510.3075 Q407.0129,510.6044 406.3722,510.745 Q405.7316,510.9012 405.0285,510.9012 Q402.5285,510.9012 401.2004,509.2606 Q399.8879,507.6044 399.8879,504.4794 Q399.8879,501.3544 401.2004,499.6981 Q402.5285,498.0419 405.0285,498.0419 Q405.7316,498.0419 406.3722,498.1981 Q407.0285,498.3544 407.591,498.6512 L407.591,501.37 Q406.966,500.7919 406.3722,500.5262 Q405.7785,500.245 405.1535,500.245 Q403.8097,500.245 403.1222,501.3231 Q402.4347,502.3856 402.4347,504.4794 Q402.4347,506.5731 403.1222,507.6512 Q403.8097,508.7137 405.1535,508.7137 Q405.7785,508.7137 406.3722,508.4481 Q406.966,508.1669 407.591,507.5887 L407.591,510.3075 Z " fill="#000000"/><text fill="#000000" font-family="sans-serif" font-size="14" lengthAdjust="spacing" textLength="94.2471" x="425.1222" y="509.5136">MemoryStore</text><line style="stroke:#181818;stroke-width:0.5;" x1="318.57" x2="593.4216" y1="520.6669" y2="520.6669"/><text fill="#000000" font-family="sans-serif" font-size="14" lengthAdjust="spacing" textLength="84.5195" x="323.57" y="537.662">-mu : Mutex</text><text fill="#000000" font-family="sans-serif" font-size="14" lengthAdjust="spacing" textLength="149.1943" x="323.57" y="553.9589">-history : []Telemetry</text><text fill="#000000" font-family="sans-serif" font-size="14" lengthAdjust="spacing" textLength="67.4229" x="323.57" y="570.2557">-max : int</text><line style="stroke:#181818;stroke-width:1;" x1="318.57" x2="593.4216" y1="577.5575" y2="577.5575"/><text fill="#000000" font-family="sans-serif" font-size="14" lengthAdjust="spacing" textLength="140.5605" x="323.57" y="594.5526">+Add(t : Telemetry)</text><text fill="#000000" font-family="sans-serif" font-size="14" lengthAdjust="spacing" textLength="264.8516" x="323.57" y="610.8495">+GetTelemetryHistory() : []Telemetry</text><text fill="#000000" font-family="sans-serif" font-size="14" lengthAdjust="spacing" textLength="136.8828" x="323.57" y="627.1464">+Last() : Telemetry</text></g><!--class TCPReceiver--><g class="entity" data-qualified-name="receiver.TCPReceiver" data-source-line="44" id="ent0008"><rect fill="#F1F1F1" height="113.1875" rx="2.5" ry="2.5" style="stroke:#181818;stroke-width:0.5;" width="163.2383" x="65.38" y="275.4869"/><ellipse cx="99.853" cy="291.4869" fill="#ADD1B2" rx="11" ry="11" style="stroke:#181818;stroke-width:1;"/><path d="M102.8218,297.1275 Q102.2437,297.4244 101.603,297.565 Q100.9624,297.7212 100.2593,297.7212 Q97.7593,297.7212 96.4312,296.0806 Q95.1187,294.4244 95.1187,291.2994 Q95.1187,288.1744 96.4312,286.5181 Q97.7593,284.8619 100.2593,284.8619 Q100.9624,284.8619 101.603,285.0181 Q102.2593,285.1744 102.8218,285.4712 L102.8218,288.19 Q102.1968,287.6119 101.603,287.3462 Q101.0093,287.065 100.3843,287.065 Q99.0405,287.065 98.353,288.1431 Q97.6655,289.2056 97.6655,291.2994 Q97.6655,293.3931 98.353,294.4712 Q99.0405,295.5337 100.3843,295.5337 Q101.0093,295.5337 101.603,295.2681 Q102.1968,294.9869 102.8218,294.4087 L102.8218,297.1275 Z " fill="#000000"/><text fill="#000000" font-family="sans-serif" font-size="14" lengthAdjust="spacing" textLength="87.9648" x="118.1804" y="296.3336">TCPReceiver</text><line style="stroke:#181818;stroke-width:0.5;" x1="66.38" x2="227.6183" y1="307.4869" y2="307.4869"/><text fill="#000000" font-family="sans-serif" font-size="14" lengthAdjust="spacing" textLength="114.167" x="71.38" y="324.482">-address : string</text><text fill="#000000" font-family="sans-serif" font-size="14" lengthAdjust="spacing" textLength="65.6182" x="71.38" y="340.7789">-port : int</text><line style="stroke:#181818;stroke-width:1;" x1="66.38" x2="227.6183" y1="348.0806" y2="348.0806"/><text fill="#000000" font-family="sans-serif" font-size="14" lengthAdjust="spacing" textLength="56.8545" x="71.38" y="365.0757">+Start()</text><text fill="#000000" font-family="sans-serif" font-size="14" lengthAdjust="spacing" textLength="151.2383" x="71.38" y="381.3726">+HandleConnection()</text></g><!--class GoServer--><g class="entity" data-qualified-name="server.GoServer" data-source-line="55" id="ent0010"><rect fill="#F1F1F1" height="113.1875" rx="2.5" ry="2.5" style="stroke:#181818;stroke-width:0.5;" width="184.416" x="462.79" y="78.2969"/><ellipse cx="518.0859" cy="94.2969" fill="#ADD1B2" rx="11" ry="11" style="stroke:#181818;stroke-width:1;"/><path d="M521.0546,99.9375 Q520.4765,100.2344 519.8359,100.375 Q519.1953,100.5313 518.4921,100.5313 Q515.9921,100.5313 514.664,98.8906 Q513.3515,97.2344 513.3515,94.1094 Q513.3515,90.9844 514.664,89.3281 Q515.9921,87.6719 518.4921,87.6719 Q519.1953,87.6719 519.8359,87.8281 Q520.4921,87.9844 521.0546,88.2813 L521.0546,91 Q520.4296,90.4219 519.8359,90.1563 Q519.2421,89.875 518.6171,89.875 Q517.2734,89.875 516.5859,90.9531 Q515.8984,92.0156 515.8984,94.1094 Q515.8984,96.2031 516.5859,97.2813 Q517.2734,98.3438 518.6171,98.3438 Q519.2421,98.3438 519.8359,98.0781 Q520.4296,97.7969 521.0546,97.2188 L521.0546,99.9375 Z " fill="#000000"/><text fill="#000000" font-family="sans-serif" font-size="14" lengthAdjust="spacing" textLength="65.3242" x="538.5859" y="99.1436">GoServer</text><line style="stroke:#181818;stroke-width:0.5;" x1="463.79" x2="646.206" y1="110.2969" y2="110.2969"/><text fill="#000000" font-family="sans-serif" font-size="14" lengthAdjust="spacing" textLength="172.416" x="468.79" y="127.292">-httpServer : http.Server</text><text fill="#000000" font-family="sans-serif" font-size="14" lengthAdjust="spacing" textLength="148.6338" x="468.79" y="143.5889">-store : MemoryStore</text><line style="stroke:#181818;stroke-width:1;" x1="463.79" x2="646.206" y1="150.8906" y2="150.8906"/><text fill="#000000" font-family="sans-serif" font-size="14" lengthAdjust="spacing" textLength="56.8545" x="468.79" y="167.8857">+Start()</text><text fill="#000000" font-family="sans-serif" font-size="14" lengthAdjust="spacing" textLength="92.5518" x="468.79" y="184.1826">+Shutdown()</text></g><!--class TelemetryHandler--><g class="entity" data-qualified-name="api.TelemetryHandler" data-source-line="66" id="ent0012"><rect fill="#F1F1F1" height="64.2969" rx="2.5" ry="2.5" style="stroke:#181818;stroke-width:0.5;" width="158.5742" x="372.71" y="299.9269"/><ellipse cx="387.71" cy="315.9269" fill="#ADD1B2" rx="11" ry="11" style="stroke:#181818;stroke-width:1;"/><path d="M390.6788,321.5675 Q390.1006,321.8644 389.46,322.005 Q388.8194,322.1613 388.1163,322.1613 Q385.6163,322.1613 384.2881,320.5206 Q382.9756,318.8644 382.9756,315.7394 Q382.9756,312.6144 384.2881,310.9581 Q385.6163,309.3019 388.1163,309.3019 Q388.8194,309.3019 389.46,309.4581 Q390.1163,309.6144 390.6788,309.9113 L390.6788,312.63 Q390.0538,312.0519 389.46,311.7863 Q388.8663,311.505 388.2413,311.505 Q386.8975,311.505 386.21,312.5831 Q385.5225,313.6456 385.5225,315.7394 Q385.5225,317.8331 386.21,318.9113 Q386.8975,319.9738 388.2413,319.9738 Q388.8663,319.9738 389.46,319.7081 Q390.0538,319.4269 390.6788,318.8488 L390.6788,321.5675 Z " fill="#000000"/><text fill="#000000" font-family="sans-serif" font-size="14" lengthAdjust="spacing" textLength="126.5742" x="401.71" y="320.7736">TelemetryHandler</text><line style="stroke:#181818;stroke-width:0.5;" x1="373.71" x2="530.2842" y1="331.9269" y2="331.9269"/><line style="stroke:#181818;stroke-width:0.5;" x1="373.71" x2="530.2842" y1="339.9269" y2="339.9269"/><text fill="#000000" font-family="sans-serif" font-size="14" lengthAdjust="spacing" textLength="98.8818" x="378.71" y="356.922">+ServeHTTP()</text></g><!--class TelemetryPDFHandler--><g class="entity" data-qualified-name="api.TelemetryPDFHandler" data-source-line="70" id="ent0013"><rect fill="#F1F1F1" height="64.2969" rx="2.5" ry="2.5" style="stroke:#181818;stroke-width:0.5;" width="185.8496" x="566.08" y="299.9269"/><ellipse cx="581.08" cy="315.9269" fill="#ADD1B2" rx="11" ry="11" style="stroke:#181818;stroke-width:1;"/><path d="M584.0488,321.5675 Q583.4706,321.8644 582.83,322.005 Q582.1894,322.1613 581.4863,322.1613 Q578.9863,322.1613 577.6581,320.5206 Q576.3456,318.8644 576.3456,315.7394 Q576.3456,312.6144 577.6581,310.9581 Q578.9863,309.3019 581.4863,309.3019 Q582.1894,309.3019 582.83,309.4581 Q583.4863,309.6144 584.0488,309.9113 L584.0488,312.63 Q583.4238,312.0519 582.83,311.7863 Q582.2363,311.505 581.6113,311.505 Q580.2675,311.505 579.58,312.5831 Q578.8925,313.6456 578.8925,315.7394 Q578.8925,317.8331 579.58,318.9113 Q580.2675,319.9738 581.6113,319.9738 Q582.2363,319.9738 582.83,319.7081 Q583.4238,319.4269 584.0488,318.8488 L584.0488,321.5675 Z " fill="#000000"/><text fill="#000000" font-family="sans-serif" font-size="14" lengthAdjust="spacing" textLength="153.8496" x="595.08" y="320.7736">TelemetryPDFHandler</text><line style="stroke:#181818;stroke-width:0.5;" x1="567.08" x2="750.9296" y1="331.9269" y2="331.9269"/><line style="stroke:#181818;stroke-width:0.5;" x1="567.08" x2="750.9296" y1="339.9269" y2="339.9269"/><text fill="#000000" font-family="sans-serif" font-size="14" lengthAdjust="spacing" textLength="98.8818" x="572.08" y="356.922">+ServeHTTP()</text></g><!--class WebSocketHandler--><g class="entity" data-qualified-name="api.WebSocketHandler" data-source-line="74" id="ent0014"><rect fill="#F1F1F1" height="80.5938" rx="2.5" ry="2.5" style="stroke:#181818;stroke-width:0.5;" width="195.6611" x="787.17" y="291.7769"/><ellipse cx="815.5953" cy="307.7769" fill="#ADD1B2" rx="11" ry="11" style="stroke:#181818;stroke-width:1;"/><path d="M818.564,313.4175 Q817.9859,313.7144 817.3453,313.855 Q816.7047,314.0112 816.0015,314.0112 Q813.5015,314.0112 812.1734,312.3706 Q810.8609,310.7144 810.8609,307.5894 Q810.8609,304.4644 812.1734,302.8081 Q813.5015,301.1519 816.0015,301.1519 Q816.7047,301.1519 817.3453,301.3081 Q818.0015,301.4644 818.564,301.7612 L818.564,304.48 Q817.939,303.9019 817.3453,303.6362 Q816.7515,303.355 816.1265,303.355 Q814.7828,303.355 814.0953,304.4331 Q813.4078,305.4956 813.4078,307.5894 Q813.4078,309.6831 814.0953,310.7612 Q814.7828,311.8237 816.1265,311.8237 Q816.7515,311.8237 817.3453,311.5581 Q817.939,311.2769 818.564,310.6987 L818.564,313.4175 Z " fill="#000000"/><text fill="#000000" font-family="sans-serif" font-size="14" lengthAdjust="spacing" textLength="133.8271" x="832.5787" y="312.6236">WebSocketHandler</text><line style="stroke:#181818;stroke-width:0.5;" x1="788.17" x2="981.8311" y1="323.7769" y2="323.7769"/><line style="stroke:#181818;stroke-width:0.5;" x1="788.17" x2="981.8311" y1="331.7769" y2="331.7769"/><text fill="#000000" font-family="sans-serif" font-size="14" lengthAdjust="spacing" textLength="94.7529" x="793.17" y="348.772">+HandleWS()</text><text fill="#000000" font-family="sans-serif" font-size="14" lengthAdjust="spacing" textLength="183.6611" x="793.17" y="365.0689">+Broadcast(t : Telemetry)</text></g><!--link TelemetryParser to Telemetry--><g class="link" data-entity-1="ent0004" data-entity-2="ent0003" data-link-type="dependency" data-source-line="82" id="lnk15"><path codeLine="82" d="M144.77,598.3369 C147.04,627.7869 149.9477,665.3347 153.1677,707.0047" fill="none" id="TelemetryParser-to-Telemetry" style="stroke:#181818;stroke-width:1;stroke-dasharray:7,7;"/><polygon fill="#181818" points="153.63,712.9869,156.9247,703.7054,153.2448,708.0017,148.9485,704.3218,153.63,712.9869" style="stroke:#181818;stroke-width:1;"/><text fill="#000000" font-family="sans-serif" font-size="13" lengthAdjust="spacing" textLength="48.3247" x="153" y="679.5138">creates</text></g><!--reverse link MemoryStore to Telemetry--><g class="link" data-entity-1="ent0006" data-entity-2="ent0003" data-link-type="aggregation" data-source-line="83" id="lnk16"><path codeLine="83" d="M369.4494,642.7647 C331.3894,678.0447 294.12,712.5769 254.39,749.3969" fill="none" id="MemoryStore-backto-Telemetry" style="stroke:#181818;stroke-width:1;"/><polygon fill="none" points="378.25,634.6069,371.1304,635.7522,369.4494,642.7647,376.569,641.6193,378.25,634.6069" style="stroke:#181818;stroke-width:1;"/><text fill="#000000" font-family="sans-serif" font-size="13" lengthAdjust="spacing" textLength="39.9395" x="336" y="679.5138">stores</text><text fill="#000000" font-family="sans-serif" font-size="13" lengthAdjust="spacing" textLength="8.271" x="362.2165" y="654.6094">1</text><text fill="#000000" font-family="sans-serif" font-size="13" lengthAdjust="spacing" textLength="6.5" x="261.9319" y="739.0436">*</text></g><!--link TCPReceiver to TelemetryParser--><g class="link" data-entity-1="ent0008" data-entity-2="ent0004" data-link-type="dependency" data-source-line="85" id="lnk17"><path codeLine="85" d="M145.77,389.0169 C144.84,431.5069 143.7118,482.6583 142.9118,519.0683" fill="none" id="TCPReceiver-to-TelemetryParser" style="stroke:#181818;stroke-width:1;stroke-dasharray:7,7;"/><polygon fill="#181818" points="142.78,525.0669,146.9767,516.1569,142.8898,520.0681,138.9787,515.9812,142.78,525.0669" style="stroke:#181818;stroke-width:1;"/><text fill="#000000" font-family="sans-serif" font-size="13" lengthAdjust="spacing" textLength="43.1069" x="146" y="433.7338">parses</text></g><!--link TCPReceiver to MemoryStore--><g class="link" data-entity-1="ent0008" data-entity-2="ent0006" data-link-type="dependency" data-source-line="86" id="lnk18"><path codeLine="86" d="M185.33,388.9469 C200.38,407.0369 219.09,425.5369 240,437.6669 C254.93,446.3269 262.04,439.1069 278,445.6669 C305.21,456.8669 327.734,469.0719 352.804,484.9819" fill="none" id="TCPReceiver-to-MemoryStore" style="stroke:#181818;stroke-width:1;stroke-dasharray:7,7;"/><polygon fill="#181818" points="357.87,488.1969,352.4144,479.9971,353.6484,485.5177,348.1277,486.7517,357.87,488.1969" style="stroke:#181818;stroke-width:1;"/><text fill="#000000" font-family="sans-serif" font-size="13" lengthAdjust="spacing" textLength="39.457" x="241" y="433.7338">writes</text></g><!--reverse link GoServer to TelemetryHandler--><g class="link" data-entity-1="ent0010" data-entity-2="ent0012" data-link-type="aggregation" data-source-line="88" id="lnk19"><path codeLine="88" d="M519.8825,202.4314 C501.4625,237.3614 484,270.4269 468.68,299.4569" fill="none" id="GoServer-backto-TelemetryHandler" style="stroke:#181818;stroke-width:1;"/><polygon fill="none" points="525.48,191.8169,519.1431,195.2583,519.8825,202.4314,526.2194,198.99,525.48,191.8169" style="stroke:#181818;stroke-width:1;"/></g><!--reverse link GoServer to TelemetryPDFHandler--><g class="link" data-entity-1="ent0010" data-entity-2="ent0013" data-link-type="aggregation" data-source-line="89" id="lnk20"><path codeLine="89" d="M590.4425,202.4075 C609.0525,237.3375 626.68,270.4269 642.15,299.4569" fill="none" id="GoServer-backto-TelemetryPDFHandler" style="stroke:#181818;stroke-width:1;"/><polygon fill="none" points="584.8,191.8169,584.091,198.993,590.4425,202.4075,591.1515,195.2314,584.8,191.8169" style="stroke:#181818;stroke-width:1;"/></g><!--reverse link GoServer to WebSocketHandler--><g class="link" data-entity-1="ent0010" data-entity-2="ent0014" data-link-type="aggregation" data-source-line="90" id="lnk21"><path codeLine="90" d="M658.5051,175.5744 C697.3251,191.9644 731.11,208.5069 769,232.4869 C795.69,249.3769 822.74,271.9769 843.99,291.2869" fill="none" id="GoServer-backto-WebSocketHandler" style="stroke:#181818;stroke-width:1;"/><polygon fill="none" points="647.45,170.9069,651.4217,176.9256,658.5051,175.5744,654.5334,169.5556,647.45,170.9069" style="stroke:#181818;stroke-width:1;"/></g><!--link GoServer to MemoryStore--><g class="link" data-entity-1="ent0010" data-entity-2="ent0006" data-link-type="dependency" data-source-line="91" id="lnk22"><path codeLine="91" d="M462.53,149.8969 C413.12,162.5969 356.36,186.7269 326,232.4869 C281.72,299.2169 297.75,337.7369 326,412.6669 C336.43,440.3369 350.6844,461.703 370.2444,483.813" fill="none" id="GoServer-to-MemoryStore" style="stroke:#181818;stroke-width:1;stroke-dasharray:7,7;"/><polygon fill="#181818" points="374.22,488.3069,371.2525,478.9157,370.907,484.562,365.2607,484.2165,374.22,488.3069" style="stroke:#181818;stroke-width:1;"/><text fill="#000000" font-family="sans-serif" font-size="13" lengthAdjust="spacing" textLength="29.7832" x="327" y="336.6438">uses</text></g><!--link TelemetryHandler to MemoryStore--><g class="link" data-entity-1="ent0012" data-entity-2="ent0006" data-link-type="dependency" data-source-line="93" id="lnk23"><path codeLine="93" d="M452.56,364.7069 C453.12,396.5669 453.8948,440.8478 454.6248,482.4778" fill="none" id="TelemetryHandler-to-MemoryStore" style="stroke:#181818;stroke-width:1;stroke-dasharray:7,7;"/><polygon fill="#181818" points="454.73,488.4769,458.5716,479.4081,454.6423,483.4776,450.5728,479.5484,454.73,488.4769" style="stroke:#181818;stroke-width:1;"/><text fill="#000000" font-family="sans-serif" font-size="13" lengthAdjust="spacing" textLength="36.334" x="454" y="433.7338">reads</text></g><!--link TelemetryPDFHandler to MemoryStore--><g class="link" data-entity-1="ent0013" data-entity-2="ent0006" data-link-type="dependency" data-source-line="94" id="lnk24"><path codeLine="94" d="M630.77,364.7069 C602.34,396.5669 561.4749,442.3702 524.3249,484.0002" fill="none" id="TelemetryPDFHandler-to-MemoryStore" style="stroke:#181818;stroke-width:1;stroke-dasharray:7,7;"/><polygon fill="#181818" points="520.33,488.4769,529.3068,484.4251,523.6591,484.7463,523.3379,479.0986,520.33,488.4769" style="stroke:#181818;stroke-width:1;"/><text fill="#000000" font-family="sans-serif" font-size="13" lengthAdjust="spacing" textLength="36.334" x="576" y="433.7338">reads</text></g><!--link WebSocketHandler to MemoryStore--><g class="link" data-entity-1="ent0014" data-entity-2="ent0006" data-link-type="dependency" data-source-line="95" id="lnk25"><path codeLine="95" d="M830.99,372.7769 C811.84,386.1469 789.86,400.6869 769,412.6669 C713.5,444.5469 655.4557,472.9997 600.2257,498.2797" fill="none" id="WebSocketHandler-to-MemoryStore" style="stroke:#181818;stroke-width:1;stroke-dasharray:7,7;"/><polygon fill="#181818" points="594.77,500.7769,604.6183,500.6682,599.3164,498.6959,601.2887,493.394,594.77,500.7769" style="stroke:#181818;stroke-width:1;"/><text fill="#000000" font-family="sans-serif" font-size="13" lengthAdjust="spacing" textLength="52.6157" x="753" y="433.7338">streams</text></g><!--SRC=[bLJDRjD04BxxALQva1AruaySegfIAA95QaLKHrG8STZOGxAgxRLsnsr3LOdsme435rw0DwYAAW8jFCFcZHXlGhon7GfhoTwTR-QRtpKAZ82PpsPiBipNoNjwtz1pmSmFSsqk9cUJC_FBN3BwN15wQTy_IVITJJvO_DoCStHijrVcPlAHsSrrVY3rSp8Ocx7dwGEHf5pnc0KHrxg3g4G_GtWUoCGNxu3TyxoK1mTy0AoHAXc0rb8rs8ddCLhMYFKWWXXGZKZCPglr8kbBhiAUY86rsTj8Sdpyg81VGYG3WQC_sCC7SsnrjL3Rar5KezBg2Wo6TS0hVdGBPG_Yj7Cug3FE8JzBba937ihRw7Su2in2g2FPaSbWATY9QWrFQolTvKg3Oklh6Og8ohYnuTRUearbI_7wJN-4i4AxkV6CzzHfhKQfQ5Dgx2x4Kerymi2XNuqpOjkbAJakP4EHKuoimqL7KnD-J918iBPcdJ1ieXlXIe5j0Sx5srCdpPKbRgZu6fktvQeW0748bIdUxExD43TP7eQAXfuuDTsDP50WgLJubwHyv8g2AGJRF0aZs9H90W4AcSomKYD0LKFRahuLkt4D4TEPjCtomzhqL6XesxUssyL_2zGVPaY3NXyWJyMowpzDq8soPMFQxlMwSwxQQNxwx7zjzw7lo-00iCPmAjhttPoUACd381-Fca6p6TwXefGNCr_CvUIJ-KR_qohgUUNxkBQsuVmDsonGm16qvrwanlq6aqJTkDjOqBNjqiJfpE42tyn7cwNvHbSKNITjTgH4xjcRpqxkizog9MZHZqM5Sj4BjEe_qpQPycnK5Qb4eVRgPc6PRgNtLKMwgy1Z_Hi0]--></g></svg>